<svg width="195" height="48" viewBox="0 0 195 48" fill="none" xmlns="http://www.w3.org/2000/svg">
<g clip-path="url(#clip0_373_338)">
<path fill-rule="evenodd" clip-rule="evenodd" d="M-0.330017 39.7693H195.33V47.3046H-0.330017V39.7693Z" fill="#AA33FF"/>
<path fill-rule="evenodd" clip-rule="evenodd" d="M185.721 2.97931L184.413 3.42091C185.721 2.97931 185.721 2.97961 185.721 2.97995L185.721 2.98079L185.724 2.98986L185.732 3.01262C185.738 3.03184 185.747 3.05909 185.759 3.09418C185.782 3.16435 185.815 3.26585 185.855 3.39697C185.937 3.65918 186.051 4.04007 186.185 4.52592C186.452 5.49723 186.799 6.89037 187.122 8.59539C187.749 11.8998 188.293 16.4064 187.985 21.2994C188.012 21.3441 188.04 21.3922 188.07 21.4437C188.269 21.7858 188.541 22.2788 188.842 22.8993C189.443 24.1373 190.169 25.8982 190.666 27.9916C191.656 32.1643 191.751 37.7543 188.011 43.0822C187.913 43.2573 187.803 43.4259 187.682 43.5869L187.674 43.5978L187.665 43.6086C186.857 44.6441 185.954 45.6036 184.968 46.4749L184.576 46.8222H146.823L146.428 46.4653C145.352 45.4935 144.377 44.4169 143.518 43.2516L143.497 43.2308L143.442 43.1584L144.539 42.3268C143.442 43.1584 143.441 43.1578 143.441 43.1572L143.44 43.1558L143.437 43.1523L143.429 43.1424C143.424 43.1346 143.416 43.1243 143.406 43.1115C143.387 43.086 143.361 43.0506 143.329 43.0057C143.264 42.9159 143.175 42.7878 143.065 42.6238C142.847 42.2961 142.552 41.8237 142.225 41.226C141.574 40.0334 140.793 38.3249 140.275 36.2583C139.256 32.1942 139.265 26.7446 143.234 21.2251C143.232 21.1797 143.229 21.1315 143.227 21.0804C143.21 20.6761 143.19 20.0962 143.175 19.3885C143.144 17.9748 143.135 16.0431 143.22 13.9793C143.306 11.9213 143.487 9.70036 143.845 7.7183C144.194 5.78971 144.744 3.88 145.69 2.60756L146.637 1.33417L157.163 11.6481C157.405 11.5745 157.695 11.4904 158.027 11.4011C159.084 11.1169 160.579 10.7771 162.346 10.5505C165.634 10.129 169.963 10.0865 174.181 11.6103L185.006 0.898804L185.721 2.97931ZM157.276 14.4957L156.451 14.8015L147.185 5.72247C146.948 6.40323 146.739 7.2364 146.564 8.20192C146.237 10.0124 146.063 12.0961 145.98 14.092C145.898 16.0821 145.906 17.9538 145.936 19.3298C145.951 20.017 145.971 20.5786 145.987 20.9671C145.995 21.1613 146.002 21.3121 146.008 21.4136C146.01 21.4643 146.012 21.5028 146.013 21.5281L146.015 21.5562L146.015 21.564L146.044 22.0627L145.743 22.4627C142.08 27.3214 142.066 32.0468 142.956 35.5972C143.404 37.3873 144.085 38.8783 144.654 39.9211C144.938 40.441 145.192 40.8453 145.371 41.1148C145.461 41.2494 145.531 41.3501 145.577 41.4143C145.582 41.4205 145.586 41.4264 145.59 41.4319L145.626 41.4678L145.691 41.5562C146.351 42.4621 147.092 43.3074 147.903 44.0821H183.513C184.221 43.4206 184.876 42.7053 185.472 41.9426C185.526 41.8703 185.574 41.7942 185.617 41.7151L185.657 41.6406L185.705 41.5716C188.896 37.0655 188.857 32.3253 187.977 28.6197C187.537 26.7655 186.89 25.1947 186.353 24.0879C186.085 23.5359 185.846 23.1032 185.678 22.8127C185.593 22.6676 185.526 22.558 185.482 22.4869C185.46 22.4514 185.443 22.4252 185.432 22.4083L185.419 22.3877L185.411 22.3754C185.41 22.374 185.405 22.3654 185.398 22.3547C185.394 22.3476 185.381 22.3257 185.372 22.3107C185.36 22.2877 185.369 21.9649 185.509 21.5652L185.2 21.543C185.549 16.7851 185.024 12.3536 184.408 9.10193C184.18 7.89831 183.94 6.86081 183.728 6.03358L174.838 14.8304L173.984 14.4754C170.118 12.8677 165.959 12.8502 162.7 13.268C161.081 13.4756 159.711 13.7871 158.75 14.0457C158.27 14.1748 157.893 14.2902 157.641 14.3719C157.515 14.4127 157.42 14.4451 157.358 14.4665C157.327 14.4772 157.305 14.4852 157.291 14.4901L157.278 14.4951L157.277 14.4952L157.276 14.4957Z" fill="#AA33FF"/>
<path d="M3.67468 43.4037V14.9057H21.5184V19.4325H8.51065V27.0374H20.5032V31.5664H8.59724V43.3886L3.67468 43.4037Z" fill="white"/>
<path d="M35.9506 43.8035C34.1149 43.8035 32.5159 43.4517 31.1536 42.7481C29.8357 42.0875 28.7376 41.0636 27.9909 39.799C27.221 38.4508 26.8335 36.9205 26.8696 35.371V29.9736C26.8343 28.4236 27.2217 26.8928 27.9909 25.5435C28.7395 24.2804 29.8371 23.2569 31.1536 22.5944C32.5174 21.8908 34.1164 21.5405 35.9506 21.5433C37.7603 21.5433 39.3391 21.8937 40.687 22.5944C41.9969 23.26 43.0881 24.2831 43.8323 25.5435C44.6034 26.8922 44.9917 28.4232 44.9558 29.9736V33.8427H31.6255V35.3667C31.6255 36.8757 31.9928 38.0142 32.7273 38.7823C33.4612 39.5518 34.55 39.9323 35.9896 39.9323C37.0921 39.9323 37.9833 39.7438 38.663 39.3669C38.9859 39.198 39.2688 38.9626 39.4928 38.6765C39.7168 38.3903 39.8767 38.06 39.9618 37.7075H44.7956C44.6261 38.6061 44.2762 39.4616 43.7667 40.2231C43.2572 40.9846 42.5985 41.6364 41.83 42.1398C40.2165 43.2489 38.2567 43.8035 35.9506 43.8035ZM40.1978 31.1215V29.9521C40.1978 28.4661 39.8435 27.3262 39.1349 26.5323C38.4263 25.7384 37.3649 25.3429 35.9506 25.3458C34.5378 25.3458 33.4633 25.7492 32.7273 26.5559C31.9913 27.3627 31.6241 28.5091 31.6255 29.9951V30.8162L40.5506 30.7367L40.1978 31.1215Z" fill="white"/>
<path d="M62.9987 43.4037C61.708 43.4324 60.431 43.1366 59.2862 42.5439C58.2372 41.9834 57.3712 41.137 56.7903 40.1042C56.1688 38.9869 55.8559 37.7262 55.8833 36.4501V19.3164H48.7679V14.9057H60.7994V36.3383C60.7615 37.0479 61.0082 37.7435 61.4856 38.2728C61.7275 38.518 62.0192 38.7092 62.3413 38.8337C62.6634 38.9582 63.0086 39.0132 63.3537 38.9951H69.6812V43.408L62.9987 43.4037Z" fill="white"/>
<path d="M81.1217 43.8035C79.0262 43.8035 77.3233 43.0605 76.013 41.5745C74.7026 40.0884 74.0467 38.098 74.0452 35.6032V29.778C74.0452 27.2545 74.7011 25.2483 76.013 23.7594C77.3248 22.2706 79.0277 21.5297 81.1217 21.5369C83.0613 21.5369 84.5816 22.1416 85.6827 23.351C86.7838 24.5605 87.3351 26.2084 87.3366 28.2949L85.9576 25.795H87.1093L86.9534 20.9157V14.8971H91.8673V43.4037H87.0573V39.5346H85.9576L87.3366 37.0369C87.3366 39.1477 86.7853 40.8006 85.6827 41.9958C84.5802 43.1909 83.0598 43.7935 81.1217 43.8035ZM82.9725 39.5862C84.2309 39.5862 85.2065 39.2086 85.8992 38.4534C86.5919 37.6982 86.9397 36.6313 86.9426 35.2528V30.094C86.9426 28.7169 86.5948 27.6493 85.8992 26.8913C85.2036 26.1332 84.228 25.7563 82.9725 25.7606C81.7105 25.7606 80.7299 26.126 80.022 26.8547C79.3141 27.5834 78.9591 28.6237 78.9591 29.9758V35.3646C78.9591 36.7188 79.3141 37.757 80.022 38.4878C80.7299 39.2186 81.7105 39.5776 82.9725 39.5776V39.5862Z" fill="white"/>
<path d="M98.5368 43.4037V21.9345H103.332V26.0315H104.669L103.332 27.1621C103.332 25.4181 103.869 24.046 104.944 23.0458C106.02 22.0456 107.487 21.544 109.347 21.5412C111.574 21.5412 113.356 22.2699 114.694 23.7272C116.032 25.1846 116.7 27.1478 116.699 29.6168V31.3751H111.549V29.9693C111.549 28.618 111.201 27.5777 110.506 26.8483C109.81 26.1189 108.808 25.7542 107.499 25.7542C106.188 25.7542 105.186 26.1311 104.492 26.8848C103.798 27.6386 103.451 28.7577 103.451 30.2423V43.3994L98.5368 43.4037Z" fill="white"/>
<path d="M121.457 43.4037V38.9908H128.847V26.3431H122.245V21.9345H133.761V38.9908H140.407V43.4037H121.457ZM130.982 18.3406C129.983 18.3406 129.196 18.0862 128.62 17.5775C128.346 17.3099 128.129 16.991 127.981 16.6393C127.833 16.2877 127.756 15.9102 127.756 15.529C127.756 15.1478 127.833 14.7704 127.981 14.4187C128.129 14.067 128.346 13.7481 128.62 13.4805C129.197 12.9747 129.984 12.7218 130.982 12.7218C131.975 12.7218 132.763 12.9754 133.339 13.4805C133.612 13.7481 133.83 14.067 133.978 14.4187C134.126 14.7704 134.202 15.1478 134.202 15.529C134.202 15.9102 134.126 16.2877 133.978 16.6393C133.83 16.991 133.612 17.3099 133.339 17.5775C132.754 18.0869 131.966 18.3406 130.973 18.3406H130.982Z" fill="white"/>
<path d="M153.025 43.7562C151.532 43.7853 150.049 43.5194 148.661 42.9738C147.505 42.5286 146.494 41.7796 145.734 40.8071C145.029 39.8527 144.662 38.6932 144.691 37.5098H149.648C149.634 37.8537 149.712 38.1952 149.873 38.4998C150.035 38.8044 150.274 39.0612 150.568 39.2444C151.187 39.6485 152.018 39.8506 153.068 39.8506H154.757C155.963 39.8506 156.874 39.6292 157.488 39.1864C157.784 38.9812 158.024 38.7058 158.185 38.3852C158.347 38.0646 158.425 37.709 158.413 37.3507C158.424 37.0018 158.351 36.6553 158.2 36.3399C158.05 36.0244 157.826 35.7491 157.547 35.5365C156.97 35.0837 156.144 34.7778 155.07 34.6187L152.04 34.2275C149.786 33.8922 148.089 33.19 146.948 32.121C145.808 31.052 145.238 29.6082 145.236 27.7897C145.236 25.7592 145.925 24.2173 147.301 23.164C148.678 22.1108 150.676 21.5834 153.295 21.582H154.791C157.255 21.582 159.221 22.1151 160.69 23.1812C161.388 23.6593 161.955 24.3028 162.34 25.0535C162.724 25.8042 162.914 26.6383 162.892 27.4802H157.941C157.947 27.1855 157.873 26.8946 157.728 26.6376C157.582 26.3806 157.371 26.1668 157.114 26.0186C156.564 25.666 155.78 25.4919 154.757 25.4919H153.263C152.213 25.4919 151.416 25.6918 150.867 26.0959C150.597 26.2887 150.38 26.5451 150.235 26.8419C150.091 27.1388 150.023 27.4667 150.037 27.7962C150.037 29.1217 150.994 29.9285 152.908 30.2165L155.975 30.683C158.413 30.9939 160.228 31.6911 161.422 32.7744C162.615 33.8578 163.211 35.3467 163.21 37.2411C163.21 39.2974 162.495 40.8981 161.065 42.0431C159.634 43.188 157.532 43.7612 154.757 43.7627L153.025 43.7562Z" fill="white"/>
<path d="M177.477 43.8035C175.642 43.8035 174.043 43.4517 172.683 42.7481C171.363 42.0877 170.264 41.0638 169.516 39.799C168.746 38.4506 168.36 36.9203 168.396 35.371V29.9736C168.36 28.4238 168.747 26.893 169.516 25.5435C170.266 24.2803 171.365 23.2569 172.683 22.5944C174.042 21.8908 175.64 21.5405 177.477 21.5433C179.287 21.5433 180.866 21.8937 182.214 22.5944C183.523 23.2606 184.614 24.2836 185.359 25.5435C186.13 26.8923 186.517 28.4234 186.48 29.9736V33.8427H173.152V35.3667C173.152 36.8757 173.52 38.0142 174.254 38.7823C174.997 39.5475 176.079 39.9344 177.516 39.9344C178.618 39.9344 179.508 39.7474 180.192 39.3691C180.515 39.2005 180.798 38.9652 181.022 38.679C181.246 38.3928 181.406 38.0623 181.491 37.7097H186.327C186.157 38.6081 185.807 39.4634 185.297 40.2249C184.788 40.9863 184.129 41.6382 183.361 42.1419C181.746 43.2496 179.785 43.8035 177.477 43.8035ZM181.725 31.1215V29.9521C181.725 28.4661 181.37 27.3262 180.662 26.5323C179.953 25.7384 178.892 25.3429 177.477 25.3458C176.062 25.3458 174.987 25.7492 174.254 26.5559C173.521 27.3627 173.154 28.5091 173.152 29.9951V30.8162L182.075 30.7367L181.725 31.1215Z" fill="white"/>
</g>
<defs>
<clipPath id="clip0_373_338">
<rect width="195" height="47" fill="white" transform="translate(0 0.5)"/>
</clipPath>
</defs>
</svg>
