<svg width="252" height="61" viewBox="0 0 252 61" fill="none" xmlns="http://www.w3.org/2000/svg">
<g clip-path="url(#clip0_153_119)">
<path fill-rule="evenodd" clip-rule="evenodd" d="M-0.426453 50.9666H252.426V60.7464H-0.426453V50.9666Z" fill="#AA33FF"/>
<path fill-rule="evenodd" clip-rule="evenodd" d="M240.008 3.21781L238.319 3.79095C240.008 3.21781 240.008 3.2182 240.008 3.21864L240.009 3.21973L240.013 3.2315L240.023 3.26104C240.031 3.28598 240.043 3.32136 240.058 3.36689C240.087 3.45796 240.13 3.5897 240.182 3.75988C240.288 4.1002 240.435 4.59454 240.608 5.22511C240.954 6.48575 241.402 8.29387 241.82 10.5068C242.63 14.7955 243.333 20.6445 242.935 26.995C242.969 27.0529 243.006 27.1154 243.045 27.1823C243.302 27.6262 243.653 28.2661 244.042 29.0714C244.818 30.6782 245.757 32.9637 246.399 35.6806C247.679 41.0962 247.802 48.3513 242.968 55.2663C242.841 55.4935 242.699 55.7123 242.543 55.9212L242.532 55.9354L242.522 55.9494C241.477 57.2934 240.31 58.5387 239.036 59.6696L238.529 60.1203H189.741L189.23 59.657C187.839 58.3958 186.58 56.9985 185.47 55.486L185.443 55.4591L185.371 55.3651L186.789 54.2858C185.371 55.3651 185.37 55.3644 185.37 55.3636L185.368 55.3618L185.365 55.3572L185.355 55.3444C185.347 55.3343 185.337 55.3209 185.325 55.3043C185.3 55.2712 185.267 55.2252 185.225 55.167C185.142 55.0504 185.026 54.8841 184.885 54.6713C184.603 54.246 184.22 53.6329 183.799 52.8571C182.957 51.3093 181.948 49.0919 181.278 46.4097C179.962 41.135 179.973 34.0621 185.102 26.8985C185.099 26.8396 185.097 26.777 185.094 26.7108C185.072 26.186 185.045 25.4333 185.026 24.5148C184.986 22.68 184.974 20.173 185.085 17.4944C185.195 14.8234 185.429 11.9409 185.892 9.36842C186.343 6.86534 187.053 4.38679 188.276 2.73532L189.5 1.08262L203.103 14.4688C203.416 14.3733 203.79 14.2642 204.22 14.1482C205.585 13.7794 207.517 13.3384 209.801 13.0443C214.051 12.4972 219.644 12.4421 225.096 14.4197L239.085 0.517578L240.008 3.21781ZM203.249 18.1646L202.182 18.5616L190.208 6.77809C189.902 7.66162 189.631 8.74297 189.406 9.99609C188.983 12.3458 188.759 15.0502 188.651 17.6407C188.545 20.2236 188.556 22.6527 188.594 24.4387C188.614 25.3306 188.639 26.0594 188.66 26.5636C188.671 26.8157 188.68 27.0114 188.687 27.1432C188.69 27.209 188.693 27.2589 188.694 27.2918L188.696 27.3282L188.697 27.3384L188.734 27.9856L188.344 28.5048C183.611 34.8107 183.593 40.9437 184.743 45.5517C185.322 47.875 186.202 49.8101 186.938 51.1636C187.304 51.8383 187.632 52.363 187.864 52.7128C187.98 52.8875 188.071 53.0182 188.131 53.1016C188.137 53.1096 188.142 53.1172 188.147 53.1243L188.194 53.1709L188.277 53.2856C189.131 54.4614 190.088 55.5585 191.136 56.564H237.155C238.07 55.7055 238.916 54.7771 239.687 53.7872C239.757 53.6933 239.819 53.5946 239.874 53.4919L239.925 53.3952L239.989 53.3056C244.112 47.4573 244.061 41.3051 242.924 36.4957C242.356 34.0892 241.52 32.0506 240.826 30.6141C240.479 29.8977 240.171 29.3361 239.953 28.959C239.844 28.7707 239.757 28.6285 239.7 28.5362C239.671 28.4902 239.65 28.4561 239.636 28.4342L239.619 28.4075L239.608 28.3915C239.607 28.3897 239.6 28.3784 239.592 28.3646C239.586 28.3554 239.569 28.327 239.558 28.3075C239.542 28.2777 239.554 27.8587 239.735 27.34L239.336 27.3111C239.786 21.1359 239.108 15.3844 238.312 11.1642C238.017 9.60205 237.707 8.25551 237.434 7.18187L225.945 18.599L224.841 18.1383C219.845 16.0516 214.471 16.029 210.259 16.5712C208.166 16.8407 206.396 17.245 205.154 17.5806C204.533 17.7481 204.047 17.8979 203.721 18.0039C203.558 18.0569 203.435 18.0989 203.355 18.1267C203.315 18.1406 203.286 18.1509 203.269 18.1573L203.251 18.1638L203.25 18.164L203.249 18.1646Z" fill="#AA33FF"/>
<path d="M4.7489 55.6835V18.6967H27.8085V24.572H10.9985V34.4422H26.4965V40.3202H11.1104V55.664L4.7489 55.6835Z" fill="black"/>
<path d="M46.4592 56.2024C44.087 56.2024 42.0206 55.7458 40.26 54.8326C38.5569 53.9753 37.1379 52.6463 36.1729 51.0051C35.1779 49.2552 34.6771 47.2692 34.7238 45.2581V38.253C34.6782 36.2412 35.1789 34.2545 36.1729 32.5033C37.1402 30.8639 38.5586 29.5356 40.26 28.6757C42.0224 27.7625 44.0888 27.3078 46.4592 27.3115C48.7979 27.3115 50.8382 27.7663 52.5801 28.6757C54.2729 29.5396 55.6831 30.8675 56.6448 32.5033C57.6413 34.2537 58.1431 36.2408 58.0967 38.253V43.2746H40.8699V45.2526C40.8699 47.211 41.3445 48.6886 42.2938 49.6855C43.2421 50.6842 44.6493 51.178 46.5096 51.178C47.9344 51.178 49.0861 50.9335 49.9645 50.4443C50.3818 50.2251 50.7474 49.9196 51.0368 49.5482C51.3263 49.1767 51.5329 48.748 51.6429 48.2906H57.8897C57.6707 49.4569 57.2185 50.5672 56.56 51.5555C55.9016 52.5438 55.0504 53.3898 54.0572 54.0431C51.9721 55.4826 49.4395 56.2024 46.4592 56.2024ZM51.9479 39.7428V38.2251C51.9479 36.2965 51.49 34.8169 50.5743 33.7866C49.6586 32.7562 48.2869 32.2429 46.4592 32.2466C44.6334 32.2466 43.2449 32.7702 42.2938 33.8173C41.3426 34.8644 40.868 36.3522 40.8699 38.2809V39.3466L52.4039 39.2434L51.9479 39.7428Z" fill="black"/>
<path d="M81.4137 55.6835C79.7457 55.7207 78.0954 55.3369 76.616 54.5676C75.2603 53.8402 74.1412 52.7416 73.3905 51.4012C72.5874 49.951 72.183 48.3149 72.2184 46.6586V24.4213H63.0231V18.6967H78.5714V46.5135C78.5225 47.4345 78.8414 48.3373 79.4582 49.0243C79.7709 49.3425 80.1479 49.5906 80.5641 49.7522C80.9804 49.9139 81.4264 49.9853 81.8725 49.9617H90.0495V55.6891L81.4137 55.6835Z" fill="black"/>
<path d="M104.834 56.2024C102.126 56.2024 99.9255 55.2381 98.2321 53.3094C96.5387 51.3807 95.6911 48.7974 95.6892 45.5594V37.9991C95.6892 34.7239 96.5368 32.1202 98.2321 30.1878C99.9274 28.2554 102.128 27.2939 104.834 27.3032C107.341 27.3032 109.305 28.088 110.728 29.6577C112.151 31.2274 112.864 33.3663 112.866 36.0742L111.084 32.8297H112.572L112.371 26.4969V18.6855H118.721V55.6835H112.505V50.6619H111.084L112.866 47.4202C112.866 50.1598 112.153 52.3051 110.728 53.8562C109.304 55.4073 107.339 56.1894 104.834 56.2024ZM107.226 50.7289C108.852 50.7289 110.113 50.2388 111.008 49.2587C111.903 48.2785 112.353 46.8939 112.357 45.1047V38.4092C112.357 36.6219 111.907 35.2363 111.008 34.2525C110.109 33.2686 108.849 32.7795 107.226 32.7851C105.595 32.7851 104.328 33.2593 103.413 34.205C102.498 35.1508 102.039 36.501 102.039 38.2558V45.2498C102.039 47.0073 102.498 48.3548 103.413 49.3033C104.328 50.2518 105.595 50.7177 107.226 50.7177V50.7289Z" fill="black"/>
<path d="M127.34 55.6835V27.8193H133.536V33.1366H135.265L133.536 34.604C133.536 32.3406 134.231 30.5597 135.62 29.2616C137.01 27.9634 138.906 27.3125 141.31 27.3087C144.188 27.3087 146.491 28.2545 148.22 30.1459C149.949 32.0374 150.813 34.5854 150.811 37.7899V40.0719H144.155V38.2474C144.155 36.4936 143.706 35.1433 142.807 34.1967C141.908 33.25 140.613 32.7767 138.921 32.7767C137.228 32.7767 135.933 33.2658 135.036 34.2441C134.139 35.2224 133.69 36.6749 133.69 38.6017V55.6779L127.34 55.6835Z" fill="black"/>
<path d="M156.96 55.6835V49.9561H166.51V33.5411H157.978V27.8193H172.86V49.9561H181.449V55.6835H156.96ZM169.268 23.1548C167.978 23.1548 166.961 22.8246 166.216 22.1644C165.863 21.8171 165.582 21.4032 165.391 20.9468C165.199 20.4904 165.101 20.0005 165.101 19.5057C165.101 19.011 165.199 18.5211 165.391 18.0647C165.582 17.6083 165.863 17.1944 166.216 16.8471C166.962 16.1906 167.98 15.8623 169.268 15.8623C170.552 15.8623 171.571 16.1915 172.315 16.8471C172.668 17.1944 172.949 17.6083 173.14 18.0647C173.332 18.5211 173.431 19.011 173.431 19.5057C173.431 20.0005 173.332 20.4904 173.14 20.9468C172.949 21.4032 172.668 21.8171 172.315 22.1644C171.56 22.8256 170.541 23.1548 169.257 23.1548H169.268Z" fill="black"/>
<path d="M197.755 56.141C195.826 56.1788 193.909 55.8336 192.115 55.1256C190.622 54.5478 189.315 53.5757 188.333 52.3135C187.422 51.0747 186.948 49.5698 186.985 48.034H193.391C193.373 48.4804 193.473 48.9236 193.682 49.3189C193.891 49.7142 194.201 50.0475 194.58 50.2853C195.38 50.8098 196.454 51.072 197.811 51.072H199.993C201.552 51.072 202.729 50.7847 203.523 50.21C203.906 49.9437 204.216 49.5862 204.424 49.1701C204.633 48.754 204.734 48.2925 204.718 47.8275C204.732 47.3747 204.638 46.925 204.443 46.5156C204.249 46.1062 203.959 45.7488 203.599 45.4729C202.853 44.8852 201.786 44.4882 200.399 44.2817L196.482 43.774C193.569 43.3388 191.376 42.4274 189.903 41.04C188.429 39.6525 187.692 37.7788 187.69 35.4186C187.69 32.7832 188.579 30.782 190.359 29.415C192.138 28.048 194.72 27.3636 198.105 27.3617H200.038C203.221 27.3617 205.762 28.0536 207.661 29.4373C208.563 30.0578 209.296 30.893 209.793 31.8673C210.29 32.8416 210.535 33.9242 210.506 35.0169H204.108C204.116 34.6344 204.021 34.2568 203.833 33.9232C203.645 33.5897 203.371 33.3123 203.04 33.1198C202.329 32.6623 201.316 32.4363 199.993 32.4363H198.063C196.706 32.4363 195.677 32.6958 194.966 33.2203C194.618 33.4705 194.337 33.8032 194.15 34.1885C193.963 34.5737 193.875 34.9994 193.895 35.427C193.895 37.1473 195.131 38.1944 197.604 38.5683L201.568 39.1736C204.718 39.5772 207.064 40.482 208.606 41.8881C210.149 43.2941 210.919 45.2265 210.917 47.6852C210.917 50.3541 209.993 52.4316 208.145 53.9176C206.297 55.4036 203.579 56.1475 199.993 56.1494L197.755 56.141Z" fill="black"/>
<path d="M229.355 56.2024C226.983 56.2024 224.918 55.7458 223.159 54.8326C221.454 53.9755 220.033 52.6466 219.066 51.0051C218.072 49.255 217.572 47.2689 217.62 45.2581V38.253C217.573 36.2415 218.073 34.2548 219.066 32.5033C220.036 30.8637 221.456 29.5355 223.159 28.6757C224.916 27.7625 226.981 27.3078 229.355 27.3115C231.694 27.3115 233.734 27.7663 235.476 28.6757C237.168 29.5403 238.578 30.8681 239.541 32.5033C240.537 34.2539 241.037 36.241 240.99 38.253V43.2746H223.766V45.2526C223.766 47.211 224.241 48.6886 225.19 49.6855C226.149 50.6787 227.548 51.1808 229.406 51.1808C230.83 51.1808 231.979 50.9381 232.863 50.4471C233.281 50.2283 233.647 49.9229 233.936 49.5514C234.226 49.18 234.432 48.751 234.542 48.2934H240.791C240.572 49.4594 240.119 50.5696 239.461 51.5578C238.803 52.546 237.952 53.3921 236.959 54.0459C234.872 55.4836 232.338 56.2024 229.355 56.2024ZM234.844 39.7428V38.2251C234.844 36.2965 234.386 34.8169 233.47 33.7866C232.555 32.7562 231.183 32.2429 229.355 32.2466C227.526 32.2466 226.137 32.7702 225.19 33.8173C224.243 34.8644 223.768 36.3522 223.766 38.2809V39.3466L235.297 39.2434L234.844 39.7428Z" fill="black"/>
</g>
<defs>
<clipPath id="clip0_153_119">
<rect width="252" height="61" fill="white"/>
</clipPath>
</defs>
</svg>
