<svg xmlns="http://www.w3.org/2000/svg" viewBox="0 0 1024 337.81"><defs><style>.cls-1,.cls-2{fill:none;stroke:#6d6d6d;stroke-miterlimit:10;}.cls-1{stroke-width:34px;}.cls-2{stroke-width:13px;}</style></defs><g id="Layer_4" data-name="Layer 4"><line class="cls-1" x1="956.35" y1="258.53" x2="52.49" y2="258.53"/><path class="cls-2" d="M917.11,253A14.42,14.42,0,0,1,915.9,255a92.71,92.71,0,0,1-11.66,12.49H734.74A93.9,93.9,0,0,1,721.87,253l-.15-.15s-36.17-47.3.45-96.22c0,0-3.78-66.11,10-84.77l46.16,45.54s43.29-16.16,81.88,0L905.91,71.9s13.32,39.08,10,84.77C915.9,156.67,949.34,207.2,917.11,253Z"/><path d="M71,257.9V125.33h82.46v21.06H93.33V181.8h55.4v21.08h-55v55Z"/><path d="M220.09,259.72q-12.72,0-22.16-4.91a35.44,35.44,0,0,1-14.61-13.71,39.93,39.93,0,0,1-5.18-20.61V195.43a40,40,0,0,1,5.18-20.62,35.72,35.72,0,0,1,14.61-13.72q9.45-4.89,22.16-4.89,12.54,0,21.88,4.89a35.76,35.76,0,0,1,14.53,13.72,39.93,39.93,0,0,1,5.19,20.62v18H200.11v7.09q0,10.53,5.09,15.89c3.39,3.58,8.42,5.35,15.07,5.35q7.64,0,12.35-2.63a11.83,11.83,0,0,0,6-7.71H261A31.67,31.67,0,0,1,247.25,252Q236.08,259.72,220.09,259.72Zm19.62-59v-5.44q0-10.35-4.91-15.9t-14.71-5.53q-9.79,0-14.89,5.63t-5.09,16v3.81l41.23-.37Z"/><path d="M345,257.9a35.38,35.38,0,0,1-17.15-4,28.88,28.88,0,0,1-11.53-11.35,33.67,33.67,0,0,1-4.19-17V145.84H279.3V125.33h55.58V225q0,5.64,3.17,9a11.28,11.28,0,0,0,8.63,3.35h29.23V257.9Z"/><path d="M428.76,259.72q-14.52,0-23.6-10.36t-9.09-27.79V194.51q0-17.59,9.09-28t23.6-10.35q13.44,0,21.07,8.44t7.64,23L451.1,176h5.27l-.72-22.7v-28h22.7V257.9H456.18v-18H451.1l6.37-11.62q0,14.72-7.64,23.07T428.76,259.72Zm8.55-19.61q8.71,0,13.52-5.28T455.65,220V196q0-9.61-4.82-14.89t-13.52-5.26c-5.83,0-10.36,1.7-13.63,5.08s-4.91,8.23-4.91,14.53v25.06c0,6.3,1.64,11.13,4.91,14.53S431.48,240.11,437.31,240.11Z"/><path d="M509.21,257.9V158h22.16v19.07h6.17l-6.17,5.26q0-12.18,7.44-19.16t20.34-7q15.44,0,24.7,10.17t9.26,27.42V202H569.32v-6.53q0-9.45-4.82-14.53t-13.89-5.08q-9.08,0-13.89,5.26t-4.81,15.62v61.2Z"/><path d="M615.09,257.9V237.37h34.14V178.53h-30.5V158h53.21v79.35h30.69V257.9Zm44-116.6q-6.91,0-10.91-3.54a13.39,13.39,0,0,1,0-19.07q4-3.52,10.91-3.53c4.59,0,8.23,1.18,10.89,3.53a13.39,13.39,0,0,1,0,19.07C667.28,140.12,663.64,141.3,659.05,141.3Z"/><path d="M760.92,259.54a52.21,52.21,0,0,1-20.16-3.63,31.63,31.63,0,0,1-13.52-10.08,24.94,24.94,0,0,1-4.82-15.34h22.9a9.12,9.12,0,0,0,4.25,8.07c2.86,1.87,6.7,2.82,11.55,2.82h7.8c5.57,0,9.77-1,12.62-3.09a10,10,0,0,0,4.27-8.54,10.22,10.22,0,0,0-4-8.44q-4-3.18-11.44-4.27l-14-1.82q-15.61-2.35-23.52-9.8T725,185.26q0-14.16,9.54-21.52t27.69-7.36h6.91q17.07,0,27.25,7.45a23.54,23.54,0,0,1,10.17,20H783.63a7.67,7.67,0,0,0-3.82-6.8c-2.54-1.64-6.16-2.46-10.89-2.46H762c-4.85,0-8.53.94-11.07,2.81a9.26,9.26,0,0,0-3.83,7.91q0,9.27,13.26,11.26l14.17,2.17q16.89,2.17,25.16,9.73T808,229.2q0,14.37-9.9,22.35t-29.15,8Z"/><path d="M873.89,259.72q-12.74,0-22.16-4.91A35.49,35.49,0,0,1,837.1,241.1a39.93,39.93,0,0,1-5.17-20.61V195.43a40,40,0,0,1,5.17-20.62,35.77,35.77,0,0,1,14.63-13.72q9.42-4.89,22.16-4.89,12.52,0,21.87,4.89a35.82,35.82,0,0,1,14.53,13.72,39.93,39.93,0,0,1,5.19,20.62v18H853.9v7.09q0,10.53,5.09,15.89c3.38,3.58,8.41,5.35,15.07,5.35,5.09,0,9.2-.87,12.36-2.63a11.8,11.8,0,0,0,6-7.71h22.34A31.71,31.71,0,0,1,901,252Q889.87,259.72,873.89,259.72Zm19.61-59v-5.44q0-10.35-4.91-15.9t-14.7-5.53q-9.82,0-14.9,5.63t-5.09,16v3.81l41.22-.37Z"/></g></svg>