<svg xmlns="http://www.w3.org/2000/svg" viewBox="0 0 1024 337.81"><defs><style>.cls-1,.cls-2{fill:none;stroke:#a3f;stroke-miterlimit:10;}.cls-1{stroke-width:34px;}.cls-2{stroke-width:13px;}.cls-3{fill:#fff;}</style></defs><g id="Layer_2" data-name="Layer 2"><line class="cls-1" x1="963.93" y1="257.76" x2="60.07" y2="257.76"/><path class="cls-2" d="M924.69,252.28a15.1,15.1,0,0,1-1.21,1.91,93.07,93.07,0,0,1-11.66,12.48H742.32a93.81,93.81,0,0,1-12.87-14.39l-.15-.15s-36.17-47.31.45-96.23c0,0-3.78-66.11,10-84.77l46.16,45.55s43.29-16.16,81.88,0l45.71-45.55s13.32,39.08,10,84.77C923.48,155.9,956.92,206.44,924.69,252.28Z"/><path class="cls-3" d="M78.57,257.14V124.56H161v21.06H100.91V181h55.4v21.07h-55v55Z"/><path class="cls-3" d="M227.67,259q-12.72,0-22.16-4.91a35.46,35.46,0,0,1-14.61-13.72,39.89,39.89,0,0,1-5.18-20.6V194.66a40,40,0,0,1,5.18-20.61,35.65,35.65,0,0,1,14.61-13.72q9.45-4.91,22.16-4.89,12.54,0,21.88,4.89a35.69,35.69,0,0,1,14.53,13.72,39.89,39.89,0,0,1,5.19,20.61v18H207.69v7.09q0,10.53,5.09,15.89c3.39,3.58,8.42,5.35,15.07,5.35q7.64,0,12.35-2.63a11.85,11.85,0,0,0,6-7.72h22.33a31.69,31.69,0,0,1-13.7,20.62Q243.65,259,227.67,259Zm19.62-59v-5.44q0-10.37-4.91-15.91t-14.71-5.52q-9.79,0-14.89,5.63t-5.09,16v3.82l41.23-.37Z"/><path class="cls-3" d="M352.62,257.14a35.38,35.38,0,0,1-17.15-4,28.88,28.88,0,0,1-11.53-11.35,33.68,33.68,0,0,1-4.19-17V145.08H286.88V124.56h55.58v99.71a12.5,12.5,0,0,0,3.17,9,11.25,11.25,0,0,0,8.63,3.36h29.23v20.53Z"/><path class="cls-3" d="M436.34,259q-14.52,0-23.6-10.37t-9.09-27.78V193.75q0-17.61,9.09-28t23.6-10.34q13.44,0,21.07,8.44t7.64,23l-6.37-11.63H464l-.72-22.7v-28h22.7V257.14H463.76v-18h-5.08l6.37-11.62q0,14.73-7.64,23.07T436.34,259Zm8.55-19.62q8.72,0,13.52-5.27t4.82-14.89v-24q0-9.61-4.82-14.9t-13.52-5.26c-5.83,0-10.36,1.7-13.63,5.09s-4.91,8.23-4.91,14.52v25.07c0,6.3,1.64,11.13,4.91,14.53S439.06,239.34,444.89,239.34Z"/><path class="cls-3" d="M516.79,257.14V157.26h22.15v19.06h6.18l-6.18,5.26q0-12.17,7.45-19.15t20.34-7q15.43,0,24.7,10.17T600.69,193v8.18H576.9v-6.54q0-9.43-4.82-14.52t-13.89-5.09q-9.08,0-13.89,5.26t-4.81,15.62v61.21Z"/><path class="cls-3" d="M622.67,257.14V236.61h34.14V177.77h-30.5V157.26h53.2v79.35h30.7v20.53Zm44-116.6q-6.92,0-10.91-3.55a13.38,13.38,0,0,1,0-19.06q4-3.53,10.91-3.53c4.59,0,8.23,1.18,10.89,3.53a13.38,13.38,0,0,1,0,19.06C674.86,139.36,671.22,140.54,666.63,140.54Z"/><path class="cls-3" d="M768.5,258.78a52,52,0,0,1-20.16-3.64,31.55,31.55,0,0,1-13.52-10.08A24.92,24.92,0,0,1,730,229.72h22.9a9.1,9.1,0,0,0,4.25,8.07c2.86,1.88,6.7,2.82,11.55,2.82h7.8q8.36,0,12.62-3.09a10,10,0,0,0,4.27-8.54,10.24,10.24,0,0,0-4-8.44q-4-3.16-11.44-4.27l-14-1.82q-15.62-2.34-23.52-9.8t-7.91-20.15q0-14.17,9.54-21.52t27.69-7.36h6.91q17.07,0,27.25,7.44a23.54,23.54,0,0,1,10.17,20H791.21a7.69,7.69,0,0,0-3.82-6.8c-2.54-1.64-6.16-2.45-10.89-2.45h-6.9c-4.85,0-8.53.93-11.07,2.81a9.24,9.24,0,0,0-3.83,7.91q0,9.25,13.26,11.26l14.17,2.17q16.89,2.17,25.16,9.73t8.26,20.78q0,14.35-9.91,22.34t-29.14,8Z"/><path class="cls-3" d="M881.46,259q-12.72,0-22.15-4.91a35.51,35.51,0,0,1-14.63-13.72,39.89,39.89,0,0,1-5.17-20.6V194.66a40,40,0,0,1,5.17-20.61,35.71,35.71,0,0,1,14.63-13.72q9.42-4.91,22.15-4.89,12.54,0,21.88,4.89a35.75,35.75,0,0,1,14.53,13.72,39.88,39.88,0,0,1,5.18,20.61v18H861.48v7.09q0,10.53,5.09,15.89C870,239.2,875,241,881.64,241c5.09,0,9.2-.87,12.36-2.63a11.82,11.82,0,0,0,6-7.72h22.34a31.73,31.73,0,0,1-13.7,20.62Q897.45,259,881.46,259Zm19.62-59v-5.44q0-10.37-4.91-15.91t-14.71-5.52q-9.81,0-14.89,5.63t-5.09,16v3.82l41.22-.37Z"/></g></svg>