<svg xmlns="http://www.w3.org/2000/svg" viewBox="0 0 512 512"><defs><style>.cls-1{fill:none;stroke:#a3f;stroke-miterlimit:10;stroke-width:14px;}.cls-2{fill:#a3f;}</style></defs><g id="Layer_4" data-name="Layer 4"><path class="cls-1" d="M106.05,270.49S55.29,198.13,55.4,163.12A2.89,2.89,0,0,1,59,160.55l89.76,18.15s43.33-53.75,105-64.63l23.77-88.26a1.93,1.93,0,0,1,3.06-1.23c9.59,8.18,48,42.72,73.83,93,0,0,82.5,29,73.44,119.29,0,0-8.51,82.86-88.85,127.33,0,0-78.8,54.22-161.66,23.34C177.3,387.57,95.71,358.75,106.05,270.49Z"/><path d="M181.41,485.6V150h216.1v25.61a38.73,38.73,0,0,1-38.74,38.74H249.47v74.5H385.55v31.31a33,33,0,0,1-33,33H250.39v92.71a39.71,39.71,0,0,1-39.71,39.71Z"/><circle class="cls-2" cx="413.1" cy="444.33" r="43.5"/></g></svg>